<svg width="2060" height="1492" xmlns="http://www.w3.org/2000/svg" xmlns:xlink="http://www.w3.org/1999/xlink" xml:space="preserve" overflow="hidden"><defs><clipPath id="clip0"><rect x="8513" y="80" width="2060" height="1492"/></clipPath></defs><g clip-path="url(#clip0)" transform="translate(-8513 -80)"><rect x="8514" y="81.0001" width="2057" height="1489" fill="#FFFFFF"/><g><path d="M8744.5 1438.5 10494.5 1438.5M8744.5 1401.55 10494.5 1401.55M8744.5 1364.54 10494.5 1364.54M8744.5 1327.54 10494.5 1327.54M8744.5 1290.54 10494.5 1290.54M8744.5 1253.54 10494.5 1253.54M8744.5 1216.54 10494.5 1216.54M8744.5 1179.54 10494.5 1179.54M8744.5 1141.54 10494.5 1141.54M8744.5 1104.54 10494.5 1104.54M8744.5 1067.54 10494.5 1067.54M8744.5 1030.53 10494.5 1030.53M8744.5 993.533 10494.5 993.533M8744.5 956.532 10494.5 956.532M8744.5 919.53 10494.5 919.53M8744.5 882.529 10494.5 882.529M8744.5 807.527 10494.5 807.527M8744.5 770.525 10494.5 770.525M8744.5 733.524 10494.5 733.524M8744.5 696.523 10494.5 696.523M8744.5 659.522 10494.5 659.522M8744.5 622.521 10494.5 622.521M8744.5 585.519 10494.5 585.519M8744.5 548.518 10494.5 548.518M8744.5 510.517 10494.5 510.517M8744.5 473.516 10494.5 473.516M8744.5 436.515 10494.5 436.515M8744.5 399.513 10494.5 399.513M8744.5 362.512 10494.5 362.512M8744.5 325.511 10494.5 325.511M8744.5 288.51 10494.5 288.51M8744.5 251.5 10494.5 251.5" stroke="#D9D9D9" stroke-width="3.4375" stroke-linejoin="round" stroke-miterlimit="10" fill="none"/></g><g><path d="M8744.5 251.5 8744.5 1438.5M8829.79 251.5 8829.79 1438.5M8915.79 251.5 8915.79 1438.5M9000.79 251.5 9000.79 1438.5M9085.8 251.5 9085.8 1438.5M9171.8 251.5 9171.8 1438.5M9256.8 251.5 9256.8 1438.5M9341.81 251.5 9341.81 1438.5M9427.81 251.5 9427.81 1438.5M9512.81 251.5 9512.81 1438.5M9683.82 251.5 9683.82 1438.5M9768.82 251.5 9768.82 1438.5M9853.82 251.5 9853.82 1438.5M9939.83 251.5 9939.83 1438.5M10024.8 251.5 10024.8 1438.5M10109.8 251.5 10109.8 1438.5M10195.8 251.5 10195.8 1438.5M10280.8 251.5 10280.8 1438.5M10365.8 251.5 10365.8 1438.5M10451.5 251.5 10451.5 1438.5" stroke="#D9D9D9" stroke-width="3.4375" stroke-linejoin="round" stroke-miterlimit="10" fill="none"/></g><g><path d="M0 0 0.000360892 1187" stroke="#BFBFBF" stroke-width="3.4375" stroke-linejoin="round" stroke-miterlimit="10" fill="none" fill-rule="evenodd" transform="matrix(1 0 0 -1 9598.5 1438.5)"/></g><g><path d="M8744.5 845.5 10494.5 845.5" stroke="#BFBFBF" stroke-width="3.4375" stroke-linejoin="round" stroke-miterlimit="10" fill="none" fill-rule="evenodd"/></g><g><path d="M8750.5 845.528 8755.79 1401.5 8760.79 1401.5 8765.79 1401.5 8771.79 1401.5 8776.79 1401.5 8781.79 1401.5 8787.79 1401.5 8792.79 1401.5 8797.79 1401.5 8803.79 1401.5 8808.79 1401.5 8813.79 1401.5 8819.79 1364.54 8824.79 1364.54 8829.79 1364.54 8835.79 1364.54 8840.79 1364.54 8845.79 1364.54 8851.79 1364.54 8856.79 1364.54 8861.79 1364.54 8867.79 1364.54 8872.79 1327.54 8877.79 1327.54 8883.79 1327.54 8888.79 1327.54 8893.79 1327.54 8899.79 1327.54 8904.79 1327.54 8909.79 1327.54 8915.79 1327.54 8920.79 1290.54 8925.79 1290.54 8931.79 1290.54 8936.79 1290.54 8941.79 1290.54 8947.79 1290.54 8952.79 1290.54 8957.79 1290.54 8963.79 1290.54 8968.79 1290.54 8973.79 1253.54 8979.79 1253.54 8984.79 1253.54 8989.79 1253.54 8995.79 1253.54 9000.8 1253.54 9005.8 1253.54 9011.8 1253.54 9016.8 1253.54 9021.8 1253.54 9027.8 1216.54 9032.8 1216.54 9037.8 1216.54 9043.8 1216.54 9048.8 1216.54 9053.8 1216.54 9059.8 1216.54 9064.8 1216.54 9069.8 1216.54 9075.8 1179.54 9080.8 1179.54 9085.8 1179.54 9091.8 1179.54 9096.8 1179.54 9101.8 1179.54 9107.8 1179.54 9112.8 1179.54 9117.8 1179.54 9123.8 1179.54 9128.8 1141.54 9133.8 1141.54 9139.8 1141.54 9144.8 1141.54 9149.8 1141.54 9155.8 1141.54 9160.8 1141.54 9165.8 1141.54 9171.8 1141.54 9176.8 1141.54 9181.8 1104.54 9187.8 1104.54 9192.8 1104.54 9197.8 1104.54 9203.8 1104.54 9208.8 1104.54 9213.8 1104.54 9219.8 1104.54 9224.8 1104.54 9229.8 1067.54 9235.8 1067.54 9240.8 1067.54 9245.8 1067.54 9251.8 1067.54 9256.8 1067.54 9261.8 1067.54 9267.8 1067.54 9272.8 1067.54 9277.8 1067.54 9283.8 1067.54 9288.8 1030.53 9293.8 1030.53 9299.81 1030.53 9304.81 1030.53 9309.81 1030.53 9315.81 1030.53 9320.81 1030.53 9325.81 1030.53 9331.81 1030.53 9336.81 1030.53 9341.81 993.533 9347.81 993.533 9352.81 993.533 9357.81 993.533 9363.81 993.533 9368.81 993.533 9373.81 993.533 9379.81 993.533 9384.81 993.533 9389.81 993.533 9395.81 956.532 9400.81 956.532 9405.81 956.532 9411.81 956.532 9416.81 956.532 9421.81 956.532 9427.81 956.532 9432.81 956.532 9437.81 956.532 9443.81 956.532 9448.81 919.53 9453.81 919.53 9459.81 919.53 9464.81 919.53 9469.81 919.53 9475.81 919.53 9480.81 919.53 9485.81 919.53 9491.81 919.53 9496.81 919.53 9501.81 882.529 9507.81 882.529 9512.81 882.529 9517.81 882.529 9523.81 882.529 9528.81 882.529 9533.81 882.529 9539.81 882.529 9544.81 882.529 9549.81 845.528 9555.81 845.528 9560.81 845.528 9565.81 845.528 9571.81 845.528 9576.81 845.528 9581.81 845.528 9587.81 845.528 9592.81 845.528 9597.82 845.528 9603.82 845.528 9608.82 845.528 9613.82 845.528 9619.82 845.528 9624.82 845.528 9629.82 845.528 9635.82 845.528 9640.82 845.528 9645.82 845.528 9651.82 845.528 9656.82 807.527 9661.82 807.527 9667.82 807.527 9672.82 807.527 9677.82 807.527 9683.82 807.527 9688.82 807.527 9693.82 807.527 9699.82 807.527 9704.82 807.527 9709.82 770.525 9715.82 770.525 9720.82 770.525 9725.82 770.525 9731.82 770.525 9736.82 770.525 9741.82 770.525 9747.82 770.525 9752.82 770.525 9757.82 770.525 9763.82 733.524 9768.82 733.524 9773.82 733.524 9779.82 733.524 9784.82 733.524 9789.82 733.524 9795.82 733.524 9800.82 733.524 9805.82 733.524 9811.82 733.524 9816.82 696.523 9821.82 696.523 9827.82 696.523 9832.82 696.523 9837.82 696.523 9843.82 696.523 9848.82 696.523 9853.82 696.523 9859.82 696.523 9864.82 696.523 9869.82 659.522 9875.82 659.522 9880.82 659.522 9885.82 659.522 9891.82 659.522 9896.83 659.522 9901.83 659.522 9907.83 659.522 9912.83 659.522 9917.83 659.522 9923.83 622.521 9928.83 622.521 9933.83 622.521 9939.83 622.521 9944.83 622.521 9949.83 622.521 9955.83 622.521 9960.83 622.521 9965.83 622.521 9971.83 622.521 9976.83 585.519 9981.83 585.519 9987.83 585.519 9992.83 585.519 9997.83 585.519 10003.8 585.519 10008.8 585.519 10013.8 585.519 10019.8 585.519 10024.8 585.519 10029.8 548.518 10035.8 548.518 10040.8 548.518 10045.8 548.518 10051.8 548.518 10056.8 548.518 10061.8 548.518 10067.8 548.518 10072.8 548.518 10077.8 548.518 10083.8 548.518 10088.8 510.517 10093.8 510.517 10099.8 510.517 10104.8 510.517 10109.8 510.517 10115.8 510.517 10120.8 510.517 10125.8 473.516 10131.8 473.516 10136.8 473.516 10141.8 473.516 10147.8 473.516 10152.8 473.516 10157.8 473.516 10163.8 473.516 10168.8 473.516 10173.8 473.516 10179.8 473.516 10184.8 436.515 10189.8 436.515 10195.8 436.515 10200.8 436.515 10205.8 436.515 10211.8 436.515 10216.8 436.515 10221.8 436.515 10227.8 436.515 10232.8 436.515 10237.8 399.513 10243.8 399.513 10248.8 399.513 10253.8 399.513 10259.8 399.513 10264.8 399.513 10269.8 399.513 10275.8 399.513 10280.8 399.513 10285.8 362.512 10291.8 362.512 10296.8 362.512 10301.8 362.512 10307.8 362.512 10312.8 362.512 10317.8 362.512 10323.8 362.512 10328.8 362.512 10333.8 362.512 10339.8 325.511 10344.8 325.511 10349.8 325.511 10355.8 325.511 10360.8 325.511 10365.8 325.511 10371.8 325.511 10376.8 325.511 10381.8 325.511 10387.8 288.5 10392.8 288.5 10397.8 288.5 10403.8 288.5 10408.8 288.5 10414.8 288.5 10419.8 288.5 10424.8 288.5 10429.8 288.5 10435.8 288.5 10440.8 288.5 10445.8 288.5 10451.8 288.5 10456.8 845.528 10461.8 845.528 10467.5 845.528" stroke="#156082" stroke-width="6.875" stroke-linecap="round" stroke-linejoin="round" stroke-miterlimit="10" fill="none"/></g><g><text fill="#595959" font-family="Aptos Narrow,Aptos Narrow_MSFontService,sans-serif" font-weight="400" font-stretch="semi-condensed" font-size="41" transform="matrix(1 0 0 1 8652.19 1450)">-16</text></g><g><text fill="#595959" font-family="Aptos Narrow,Aptos Narrow_MSFontService,sans-serif" font-weight="400" font-stretch="semi-condensed" font-size="41" transform="matrix(1 0 0 1 8652.19 1413)">-15</text></g><g><text fill="#595959" font-family="Aptos Narrow,Aptos Narrow_MSFontService,sans-serif" font-weight="400" font-stretch="semi-condensed" font-size="41" transform="matrix(1 0 0 1 8652.19 1376)">-14</text></g><g><text fill="#595959" font-family="Aptos Narrow,Aptos Narrow_MSFontService,sans-serif" font-weight="400" font-stretch="semi-condensed" font-size="41" transform="matrix(1 0 0 1 8652.19 1339)">-13</text></g><g><text fill="#595959" font-family="Aptos Narrow,Aptos Narrow_MSFontService,sans-serif" font-weight="400" font-stretch="semi-condensed" font-size="41" transform="matrix(1 0 0 1 8652.19 1302)">-12</text></g><g><text fill="#595959" font-family="Aptos Narrow,Aptos Narrow_MSFontService,sans-serif" font-weight="400" font-stretch="semi-condensed" font-size="41" transform="matrix(1 0 0 1 8652.19 1265)">-11</text></g><g><text fill="#595959" font-family="Aptos Narrow,Aptos Narrow_MSFontService,sans-serif" font-weight="400" font-stretch="semi-condensed" font-size="41" transform="matrix(1 0 0 1 8652.19 1228)">-10</text></g><g><text fill="#595959" font-family="Aptos Narrow,Aptos Narrow_MSFontService,sans-serif" font-weight="400" font-stretch="semi-condensed" font-size="41" transform="matrix(1 0 0 1 8673.09 1191)">-9</text></g><g><text fill="#595959" font-family="Aptos Narrow,Aptos Narrow_MSFontService,sans-serif" font-weight="400" font-stretch="semi-condensed" font-size="41" transform="matrix(1 0 0 1 8673.09 1154)">-8</text></g><g><text fill="#595959" font-family="Aptos Narrow,Aptos Narrow_MSFontService,sans-serif" font-weight="400" font-stretch="semi-condensed" font-size="41" transform="matrix(1 0 0 1 8673.09 1116)">-7</text></g><g><text fill="#595959" font-family="Aptos Narrow,Aptos Narrow_MSFontService,sans-serif" font-weight="400" font-stretch="semi-condensed" font-size="41" transform="matrix(1 0 0 1 8673.09 1079)">-6</text></g><g><text fill="#595959" font-family="Aptos Narrow,Aptos Narrow_MSFontService,sans-serif" font-weight="400" font-stretch="semi-condensed" font-size="41" transform="matrix(1 0 0 1 8673.09 1042)">-5</text></g><g><text fill="#595959" font-family="Aptos Narrow,Aptos Narrow_MSFontService,sans-serif" font-weight="400" font-stretch="semi-condensed" font-size="41" transform="matrix(1 0 0 1 8673.09 1005)">-4</text></g><g><text fill="#595959" font-family="Aptos Narrow,Aptos Narrow_MSFontService,sans-serif" font-weight="400" font-stretch="semi-condensed" font-size="41" transform="matrix(1 0 0 1 8673.09 968)">-3</text></g><g><text fill="#595959" font-family="Aptos Narrow,Aptos Narrow_MSFontService,sans-serif" font-weight="400" font-stretch="semi-condensed" font-size="41" transform="matrix(1 0 0 1 8673.09 931)">-2</text></g><g><text fill="#595959" font-family="Aptos Narrow,Aptos Narrow_MSFontService,sans-serif" font-weight="400" font-stretch="semi-condensed" font-size="41" transform="matrix(1 0 0 1 8673.09 894)">-1</text></g><g><text fill="#595959" font-family="Aptos Narrow,Aptos Narrow_MSFontService,sans-serif" font-weight="400" font-stretch="semi-condensed" font-size="41" transform="matrix(1 0 0 1 8685.71 857)">0</text></g><g><text fill="#595959" font-family="Aptos Narrow,Aptos Narrow_MSFontService,sans-serif" font-weight="400" font-stretch="semi-condensed" font-size="41" transform="matrix(1 0 0 1 8685.71 819)">1</text></g><g><text fill="#595959" font-family="Aptos Narrow,Aptos Narrow_MSFontService,sans-serif" font-weight="400" font-stretch="semi-condensed" font-size="41" transform="matrix(1 0 0 1 8685.71 782)">2</text></g><g><text fill="#595959" font-family="Aptos Narrow,Aptos Narrow_MSFontService,sans-serif" font-weight="400" font-stretch="semi-condensed" font-size="41" transform="matrix(1 0 0 1 8685.71 745)">3</text></g><g><text fill="#595959" font-family="Aptos Narrow,Aptos Narrow_MSFontService,sans-serif" font-weight="400" font-stretch="semi-condensed" font-size="41" transform="matrix(1 0 0 1 8685.71 708)">4</text></g><g><text fill="#595959" font-family="Aptos Narrow,Aptos Narrow_MSFontService,sans-serif" font-weight="400" font-stretch="semi-condensed" font-size="41" transform="matrix(1 0 0 1 8685.71 671)">5</text></g><g><text fill="#595959" font-family="Aptos Narrow,Aptos Narrow_MSFontService,sans-serif" font-weight="400" font-stretch="semi-condensed" font-size="41" transform="matrix(1 0 0 1 8685.71 634)">6</text></g><g><text fill="#595959" font-family="Aptos Narrow,Aptos Narrow_MSFontService,sans-serif" font-weight="400" font-stretch="semi-condensed" font-size="41" transform="matrix(1 0 0 1 8685.71 597)">7</text></g><g><text fill="#595959" font-family="Aptos Narrow,Aptos Narrow_MSFontService,sans-serif" font-weight="400" font-stretch="semi-condensed" font-size="41" transform="matrix(1 0 0 1 8685.71 560)">8</text></g><g><text fill="#595959" font-family="Aptos Narrow,Aptos Narrow_MSFontService,sans-serif" font-weight="400" font-stretch="semi-condensed" font-size="41" transform="matrix(1 0 0 1 8685.71 523)">9</text></g><g><text fill="#595959" font-family="Aptos Narrow,Aptos Narrow_MSFontService,sans-serif" font-weight="400" font-stretch="semi-condensed" font-size="41" transform="matrix(1 0 0 1 8664.81 485)">10</text></g><g><text fill="#595959" font-family="Aptos Narrow,Aptos Narrow_MSFontService,sans-serif" font-weight="400" font-stretch="semi-condensed" font-size="41" transform="matrix(1 0 0 1 8664.81 448)">11</text></g><g><text fill="#595959" font-family="Aptos Narrow,Aptos Narrow_MSFontService,sans-serif" font-weight="400" font-stretch="semi-condensed" font-size="41" transform="matrix(1 0 0 1 8664.81 411)">12</text></g><g><text fill="#595959" font-family="Aptos Narrow,Aptos Narrow_MSFontService,sans-serif" font-weight="400" font-stretch="semi-condensed" font-size="41" transform="matrix(1 0 0 1 8664.81 374)">13</text></g><g><text fill="#595959" font-family="Aptos Narrow,Aptos Narrow_MSFontService,sans-serif" font-weight="400" font-stretch="semi-condensed" font-size="41" transform="matrix(1 0 0 1 8664.81 337)">14</text></g><g><text fill="#595959" font-family="Aptos Narrow,Aptos Narrow_MSFontService,sans-serif" font-weight="400" font-stretch="semi-condensed" font-size="41" transform="matrix(1 0 0 1 8664.81 300)">15</text></g><g><text fill="#595959" font-family="Aptos Narrow,Aptos Narrow_MSFontService,sans-serif" font-weight="400" font-stretch="semi-condensed" font-size="41" transform="matrix(1 0 0 1 8664.81 263)">16</text></g><g><text fill="#595959" font-family="Aptos Narrow,Aptos Narrow_MSFontService,sans-serif" font-weight="400" font-stretch="semi-condensed" font-size="41" transform="matrix(1 0 0 1 8712.12 910)">-2.0</text></g><g><text fill="#595959" font-family="Aptos Narrow,Aptos Narrow_MSFontService,sans-serif" font-weight="400" font-stretch="semi-condensed" font-size="41" transform="matrix(1 0 0 1 8797.47 910)">-1.8</text></g><g><text fill="#595959" font-family="Aptos Narrow,Aptos Narrow_MSFontService,sans-serif" font-weight="400" font-stretch="semi-condensed" font-size="41" transform="matrix(1 0 0 1 8882.82 910)">-1.6</text></g><g><text fill="#595959" font-family="Aptos Narrow,Aptos Narrow_MSFontService,sans-serif" font-weight="400" font-stretch="semi-condensed" font-size="41" transform="matrix(1 0 0 1 8968.16 910)">-1.4</text></g><g><text fill="#595959" font-family="Aptos Narrow,Aptos Narrow_MSFontService,sans-serif" font-weight="400" font-stretch="semi-condensed" font-size="41" transform="matrix(1 0 0 1 9053.51 910)">-1.2</text></g><g><text fill="#595959" font-family="Aptos Narrow,Aptos Narrow_MSFontService,sans-serif" font-weight="400" font-stretch="semi-condensed" font-size="41" transform="matrix(1 0 0 1 9138.86 910)">-1.0</text></g><g><text fill="#595959" font-family="Aptos Narrow,Aptos Narrow_MSFontService,sans-serif" font-weight="400" font-stretch="semi-condensed" font-size="41" transform="matrix(1 0 0 1 9224.21 910)">-0.8</text></g><g><text fill="#595959" font-family="Aptos Narrow,Aptos Narrow_MSFontService,sans-serif" font-weight="400" font-stretch="semi-condensed" font-size="41" transform="matrix(1 0 0 1 9309.55 910)">-0.6</text></g><g><text fill="#595959" font-family="Aptos Narrow,Aptos Narrow_MSFontService,sans-serif" font-weight="400" font-stretch="semi-condensed" font-size="41" transform="matrix(1 0 0 1 9394.9 910)">-0.4</text></g><g><text fill="#595959" font-family="Aptos Narrow,Aptos Narrow_MSFontService,sans-serif" font-weight="400" font-stretch="semi-condensed" font-size="41" transform="matrix(1 0 0 1 9480.25 910)">-0.2</text></g><g><text fill="#595959" font-family="Aptos Narrow,Aptos Narrow_MSFontService,sans-serif" font-weight="400" font-stretch="semi-condensed" font-size="41" transform="matrix(1 0 0 1 9571.91 910)">0.0</text></g><g><text fill="#595959" font-family="Aptos Narrow,Aptos Narrow_MSFontService,sans-serif" font-weight="400" font-stretch="semi-condensed" font-size="41" transform="matrix(1 0 0 1 9657.26 910)">0.2</text></g><g><text fill="#595959" font-family="Aptos Narrow,Aptos Narrow_MSFontService,sans-serif" font-weight="400" font-stretch="semi-condensed" font-size="41" transform="matrix(1 0 0 1 9742.6 910)">0.4</text></g><g><text fill="#595959" font-family="Aptos Narrow,Aptos Narrow_MSFontService,sans-serif" font-weight="400" font-stretch="semi-condensed" font-size="41" transform="matrix(1 0 0 1 9827.95 910)">0.6</text></g><g><text fill="#595959" font-family="Aptos Narrow,Aptos Narrow_MSFontService,sans-serif" font-weight="400" font-stretch="semi-condensed" font-size="41" transform="matrix(1 0 0 1 9913.3 910)">0.8</text></g><g><text fill="#595959" font-family="Aptos Narrow,Aptos Narrow_MSFontService,sans-serif" font-weight="400" font-stretch="semi-condensed" font-size="41" transform="matrix(1 0 0 1 9998.65 910)">1.0</text></g><g><text fill="#595959" font-family="Aptos Narrow,Aptos Narrow_MSFontService,sans-serif" font-weight="400" font-stretch="semi-condensed" font-size="41" transform="matrix(1 0 0 1 10084 910)">1.2</text></g><g><text fill="#595959" font-family="Aptos Narrow,Aptos Narrow_MSFontService,sans-serif" font-weight="400" font-stretch="semi-condensed" font-size="41" transform="matrix(1 0 0 1 10169.3 910)">1.4</text></g><g><text fill="#595959" font-family="Aptos Narrow,Aptos Narrow_MSFontService,sans-serif" font-weight="400" font-stretch="semi-condensed" font-size="41" transform="matrix(1 0 0 1 10254.7 910)">1.6</text></g><g><text fill="#595959" font-family="Aptos Narrow,Aptos Narrow_MSFontService,sans-serif" font-weight="400" font-stretch="semi-condensed" font-size="41" transform="matrix(1 0 0 1 10340 910)">1.8</text></g><g><text fill="#595959" font-family="Aptos Narrow,Aptos Narrow_MSFontService,sans-serif" font-weight="400" font-stretch="semi-condensed" font-size="41" transform="matrix(1 0 0 1 10425.4 910)">2.0</text></g><g><text fill="#595959" font-family="Aptos Narrow,Aptos Narrow_MSFontService,sans-serif" font-weight="400" font-stretch="semi-condensed" font-size="55" transform="matrix(6.12323e-17 -1 1 6.12323e-17 8600.37 1089)">Digital word (decimal)</text></g><g><text fill="#595959" font-family="Aptos Narrow,Aptos Narrow_MSFontService,sans-serif" font-weight="400" font-stretch="semi-condensed" font-size="55" transform="matrix(1 0 0 1 9423.08 1527)">Φ</text></g><g><text fill="#595959" font-family="Aptos Narrow,Aptos Narrow_MSFontService,sans-serif" font-weight="400" font-stretch="semi-condensed" font-size="55" transform="matrix(1 0 0 1 9460.09 1527)">e (</text></g><g><text fill="#595959" font-family="Aptos Narrow,Aptos Narrow_MSFontService,sans-serif" font-weight="400" font-stretch="semi-condensed" font-size="55" transform="matrix(1 0 0 1 9513.81 1527)">π</text></g><g><text fill="#595959" font-family="Aptos Narrow,Aptos Narrow_MSFontService,sans-serif" font-weight="400" font-stretch="semi-condensed" font-size="55" transform="matrix(1 0 0 1 9553.29 1527)">rad)</text></g><g><text font-family="Aptos Narrow,Aptos Narrow_MSFontService,sans-serif" font-weight="400" font-stretch="semi-condensed" font-size="64" transform="matrix(1 0 0 1 9275.43 175)">TDC characterization</text></g><rect x="8514.5" y="81.5" width="2057" height="1489" stroke="#D9D9D9" stroke-width="3.4375" stroke-linejoin="round" stroke-miterlimit="10" fill="none"/></g></svg>